ply
format ascii 1.0
comment Created by Blender 2.83.0 - www.blender.org, source file: 'fix_meshes.blend'
element vertex 482
property float x
property float y
property float z
element face 960
property list uchar uint vertex_indices
end_header
0.000000 0.980785 -0.195090
0.180240 0.906127 -0.382683
0.000000 0.923879 -0.382683
0.000000 0.555570 0.831470
0.074658 0.375330 0.923880
0.108386 0.544895 0.831470
0.162212 0.815493 -0.555570
0.000000 0.831469 -0.555570
0.137950 0.693520 0.707107
0.000000 0.707107 0.707107
0.137950 0.693520 -0.707107
0.000000 0.707106 -0.707107
0.162212 0.815493 0.555570
0.000000 0.831470 0.555570
0.108386 0.544895 -0.831470
0.000000 0.555570 -0.831470
0.180240 0.906127 0.382683
0.000000 0.923880 0.382683
0.074658 0.375330 -0.923880
0.000000 0.382683 -0.923880
0.191342 0.961940 0.195090
0.000000 0.980785 0.195090
0.038060 0.191341 -0.980785
0.000000 0.195090 -0.980785
0.195090 0.980785 0.000000
0.000000 1.000000 0.000000
0.000000 0.195090 0.980785
-0.000000 -0.000001 1.000000
0.038060 0.191342 0.980785
0.000000 -0.000000 -1.000000
0.191342 0.961940 -0.195090
0.000000 0.382683 0.923880
0.382684 0.923879 0.000000
0.375330 0.906127 -0.195090
0.146447 0.353553 0.923880
0.353554 0.853553 -0.382683
0.212608 0.513280 0.831470
0.318190 0.768178 -0.555570
0.270598 0.653281 0.707107
0.270598 0.653281 -0.707107
0.318190 0.768178 0.555570
0.212608 0.513280 -0.831470
0.353553 0.853553 0.382683
0.146447 0.353553 -0.923880
0.375330 0.906127 0.195090
0.074658 0.180240 -0.980785
0.074658 0.180240 0.980785
0.308658 0.461940 -0.831470
0.513280 0.768178 0.382683
0.212608 0.318189 -0.923880
0.544895 0.815493 0.195090
0.108386 0.162211 -0.980785
0.555570 0.831469 0.000000
0.108387 0.162212 0.980785
0.544895 0.815493 -0.195090
0.212608 0.318190 0.923880
0.513280 0.768178 -0.382683
0.308658 0.461940 0.831470
0.461940 0.691342 -0.555570
0.392848 0.587938 0.707107
0.392848 0.587938 -0.707107
0.461940 0.691342 0.555570
0.270598 0.270598 0.923880
0.653282 0.653281 -0.382683
0.392848 0.392847 0.831470
0.587938 0.587938 -0.555570
0.500000 0.500000 0.707107
0.500000 0.500000 -0.707107
0.587938 0.587938 0.555570
0.392848 0.392847 -0.831470
0.653282 0.653281 0.382683
0.270598 0.270598 -0.923880
0.693520 0.693520 0.195090
0.137950 0.137949 -0.980785
0.707107 0.707107 0.000000
0.137950 0.137950 0.980785
0.693520 0.693520 -0.195090
0.768178 0.513280 0.382683
0.461940 0.308658 -0.831470
0.318190 0.212607 -0.923880
0.815493 0.544895 0.195090
0.162212 0.108386 -0.980785
0.831470 0.555570 0.000000
0.162212 0.108386 0.980785
0.815493 0.544895 -0.195090
0.318190 0.212607 0.923880
0.768178 0.513280 -0.382683
0.461940 0.308658 0.831470
0.691342 0.461940 -0.555570
0.587938 0.392847 0.707107
0.587938 0.392847 -0.707107
0.691342 0.461940 0.555570
0.853554 0.353553 -0.382683
0.513280 0.212607 0.831470
0.768178 0.318189 -0.555570
0.653282 0.270598 0.707107
0.653282 0.270598 -0.707107
0.768178 0.318189 0.555570
0.513280 0.212607 -0.831470
0.853554 0.353553 0.382683
0.353554 0.146446 -0.923880
0.906128 0.375330 0.195090
0.180240 0.074658 -0.980785
0.923880 0.382683 0.000000
0.180240 0.074658 0.980785
0.906128 0.375330 -0.195090
0.353554 0.146446 0.923880
0.375330 0.074658 -0.923880
0.906128 0.180240 0.382683
0.961940 0.191341 0.195090
0.191342 0.038060 -0.980785
0.980785 0.195090 0.000000
0.191342 0.038060 0.980785
0.961940 0.191341 -0.195090
0.375331 0.074658 0.923880
0.906128 0.180240 -0.382683
0.544895 0.108386 0.831470
0.815493 0.162211 -0.555570
0.693520 0.137949 0.707107
0.693520 0.137949 -0.707107
0.815493 0.162211 0.555570
0.544895 0.108386 -0.831470
0.923880 -0.000000 -0.382683
0.831470 -0.000000 -0.555570
0.707107 -0.000000 0.707107
0.707107 -0.000000 -0.707107
0.831470 -0.000000 0.555570
0.555570 -0.000000 -0.831470
0.923880 -0.000000 0.382683
0.382684 -0.000000 -0.923880
0.980785 -0.000000 0.195090
0.195090 -0.000000 -0.980785
1.000000 -0.000000 0.000000
0.195091 -0.000000 0.980785
0.980785 -0.000000 -0.195090
0.382684 -0.000000 0.923880
0.555570 -0.000000 0.831470
0.375330 -0.074658 -0.923880
0.191342 -0.038061 -0.980785
0.980785 -0.195091 0.000000
0.191342 -0.038061 0.980785
0.961940 -0.191342 -0.195090
0.375331 -0.074658 0.923880
0.906128 -0.180240 -0.382683
0.544895 -0.108387 0.831470
0.815493 -0.162212 -0.555570
0.693520 -0.137950 0.707107
0.693520 -0.137950 -0.707107
0.815493 -0.162212 0.555570
0.544895 -0.108387 -0.831470
0.906128 -0.180240 0.382683
0.961940 -0.191342 0.195090
0.653282 -0.270598 0.707107
0.653282 -0.270598 -0.707107
0.768178 -0.318190 0.555570
0.513280 -0.212608 -0.831470
0.853554 -0.353554 0.382683
0.353553 -0.146447 -0.923880
0.906127 -0.375331 0.195090
0.180240 -0.074658 -0.980785
0.923880 -0.382684 0.000000
0.180240 -0.074658 0.980785
0.906127 -0.375331 -0.195090
0.353554 -0.146447 0.923880
0.853554 -0.353554 -0.382683
0.513280 -0.212608 0.831470
0.768178 -0.318190 -0.555570
0.831470 -0.555571 0.000000
0.162212 -0.108387 0.980785
0.162212 -0.108387 -0.980785
0.815493 -0.544895 -0.195090
0.318190 -0.212608 0.923880
0.768178 -0.513280 -0.382683
0.461940 -0.308659 0.831470
0.691342 -0.461940 -0.555570
0.587938 -0.392848 0.707107
0.587938 -0.392848 -0.707107
0.691342 -0.461940 0.555570
0.461940 -0.308659 -0.831470
0.768178 -0.513280 0.382683
0.318190 -0.212608 -0.923880
0.815493 -0.544895 0.195090
0.500000 -0.500000 -0.707107
0.587938 -0.587938 0.555570
0.392848 -0.392848 -0.831470
0.653282 -0.653282 0.382683
0.270598 -0.270598 -0.923880
0.693520 -0.693520 0.195090
0.137950 -0.137950 -0.980785
0.707107 -0.707107 0.000000
0.137950 -0.137950 0.980785
0.693520 -0.693520 -0.195090
0.270598 -0.270599 0.923880
0.653282 -0.653282 -0.382683
0.392848 -0.392848 0.831470
0.587938 -0.587938 -0.555570
0.500000 -0.500000 0.707107
0.108386 -0.162212 0.980785
0.108386 -0.162212 -0.980785
0.555570 -0.831470 0.000000
0.544895 -0.815493 -0.195090
0.212608 -0.318190 0.923880
0.513280 -0.768178 -0.382683
0.308658 -0.461940 0.831470
0.461940 -0.691342 -0.555570
0.392848 -0.587938 0.707107
0.392848 -0.587938 -0.707107
0.461940 -0.691342 0.555570
0.308658 -0.461940 -0.831470
0.513280 -0.768178 0.382683
0.212608 -0.318190 -0.923880
0.544895 -0.815493 0.195090
0.318190 -0.768178 0.555570
0.270598 -0.653282 -0.707107
0.212608 -0.513280 -0.831470
0.353553 -0.853554 0.382683
0.146447 -0.353554 -0.923880
0.375330 -0.906128 0.195090
0.074658 -0.180240 -0.980785
0.382683 -0.923880 0.000000
0.074658 -0.180240 0.980785
0.375330 -0.906128 -0.195090
0.146447 -0.353554 0.923880
0.353553 -0.853554 -0.382683
0.212608 -0.513280 0.831470
0.318190 -0.768178 -0.555570
0.270598 -0.653282 0.707107
0.191342 -0.961940 -0.195090
0.074658 -0.375331 0.923880
0.180240 -0.906128 -0.382683
0.108386 -0.544896 0.831470
0.162212 -0.815493 -0.555570
0.137950 -0.693520 0.707107
0.137950 -0.693520 -0.707107
0.162212 -0.815493 0.555570
0.108386 -0.544895 -0.831470
0.180240 -0.906128 0.382683
0.074658 -0.375331 -0.923880
0.191342 -0.961940 0.195090
0.038060 -0.191342 -0.980785
0.195090 -0.980786 0.000000
0.038060 -0.191342 0.980785
-0.000000 -0.707107 -0.707107
-0.000000 -0.555570 -0.831470
0.000000 -0.923880 0.382683
0.000000 -0.382684 -0.923880
-0.000000 -0.980785 0.195090
0.000000 -0.195091 -0.980785
-0.000000 -1.000000 0.000000
-0.000000 -0.195091 0.980785
-0.000000 -0.980785 -0.195090
0.000000 -0.382684 0.923880
0.000000 -0.923880 -0.382683
0.000000 -0.555571 0.831470
-0.000000 -0.831470 -0.555570
-0.000000 -0.707107 0.707107
-0.000000 -0.831470 0.555570
-0.180240 -0.906128 -0.382683
-0.108386 -0.544896 0.831470
-0.162212 -0.815493 -0.555570
-0.137950 -0.693520 0.707107
-0.137950 -0.693520 -0.707107
-0.162212 -0.815493 0.555570
-0.108386 -0.544895 -0.831470
-0.180240 -0.906128 0.382683
-0.074658 -0.375331 -0.923880
-0.191342 -0.961940 0.195090
-0.038060 -0.191342 -0.980785
-0.195090 -0.980786 0.000000
-0.038060 -0.191342 0.980785
-0.191342 -0.961940 -0.195090
-0.074658 -0.375331 0.923880
-0.212608 -0.513280 -0.831470
-0.146447 -0.353554 -0.923880
-0.353553 -0.853554 0.382683
-0.375330 -0.906127 0.195090
-0.074658 -0.180240 -0.980785
-0.382684 -0.923880 0.000000
-0.074658 -0.180240 0.980785
-0.375330 -0.906127 -0.195090
-0.146447 -0.353554 0.923880
-0.353553 -0.853554 -0.382683
-0.212608 -0.513280 0.831470
-0.318190 -0.768178 -0.555570
-0.270598 -0.653282 0.707107
-0.270598 -0.653282 -0.707107
-0.318190 -0.768178 0.555570
-0.308658 -0.461940 0.831470
-0.513280 -0.768178 -0.382683
-0.461940 -0.691342 -0.555570
-0.392847 -0.587938 0.707107
-0.392847 -0.587938 -0.707107
-0.461940 -0.691342 0.555570
-0.308658 -0.461940 -0.831470
-0.513280 -0.768178 0.382683
-0.212607 -0.318190 -0.923880
-0.544895 -0.815493 0.195090
-0.108386 -0.162212 -0.980785
-0.555570 -0.831470 0.000000
-0.108386 -0.162212 0.980785
-0.544895 -0.815493 -0.195090
-0.212608 -0.318190 0.923880
-0.653281 -0.653282 0.382683
-0.693520 -0.693520 0.195090
-0.137950 -0.137950 -0.980785
-0.707107 -0.707107 0.000000
-0.137950 -0.137950 0.980785
-0.693520 -0.693520 -0.195090
-0.270598 -0.270598 0.923880
-0.653281 -0.653282 -0.382683
-0.392848 -0.392848 0.831470
-0.587938 -0.587938 -0.555570
-0.500000 -0.500000 0.707107
-0.500000 -0.500000 -0.707107
-0.587938 -0.587938 0.555570
-0.392847 -0.392848 -0.831470
-0.270598 -0.270598 -0.923880
-0.768178 -0.513280 -0.382683
-0.691342 -0.461940 -0.555570
-0.461940 -0.308659 0.831470
-0.587938 -0.392848 0.707107
-0.587938 -0.392848 -0.707107
-0.691342 -0.461940 0.555570
-0.461940 -0.308658 -0.831470
-0.768178 -0.513280 0.382683
-0.318190 -0.212608 -0.923880
-0.815493 -0.544895 0.195090
-0.162212 -0.108387 -0.980785
-0.831470 -0.555570 0.000000
-0.162212 -0.108387 0.980785
-0.815493 -0.544895 -0.195090
-0.318190 -0.212608 0.923880
-0.353553 -0.146447 -0.923880
-0.180240 -0.074658 -0.980785
-0.923880 -0.382684 0.000000
-0.180240 -0.074658 0.980785
-0.906127 -0.375330 -0.195090
-0.353553 -0.146447 0.923880
-0.853553 -0.353554 -0.382683
-0.513280 -0.212608 0.831470
-0.768177 -0.318190 -0.555570
-0.653281 -0.270598 0.707107
-0.653281 -0.270598 -0.707107
-0.768177 -0.318190 0.555570
-0.513280 -0.212608 -0.831470
-0.853553 -0.353554 0.382683
-0.906127 -0.375330 0.195090
-0.544895 -0.108387 0.831470
-0.693520 -0.137950 0.707107
-0.693520 -0.137950 -0.707107
-0.815493 -0.162212 0.555570
-0.544895 -0.108387 -0.831470
-0.906127 -0.180240 0.382683
-0.375330 -0.074658 -0.923880
-0.961939 -0.191342 0.195090
-0.191342 -0.038061 -0.980785
-0.980785 -0.195090 0.000000
-0.191342 -0.038061 0.980785
-0.961939 -0.191342 -0.195090
-0.375330 -0.074658 0.923880
-0.906127 -0.180240 -0.382683
-0.815493 -0.162212 -0.555570
-1.000000 -0.000000 0.000000
-0.195090 -0.000000 0.980785
-0.195090 -0.000000 -0.980785
-0.980785 -0.000000 -0.195090
-0.382683 -0.000000 0.923880
-0.923879 -0.000000 -0.382683
-0.555570 -0.000000 0.831470
-0.831469 -0.000000 -0.555570
-0.707107 -0.000000 0.707107
-0.707107 -0.000000 -0.707107
-0.831469 -0.000000 0.555570
-0.555570 -0.000000 -0.831470
-0.923879 -0.000000 0.382683
-0.382683 -0.000000 -0.923880
-0.980785 -0.000000 0.195090
-0.693520 0.137949 -0.707107
-0.693520 0.137949 0.707107
-0.815493 0.162211 0.555570
-0.544895 0.108386 -0.831470
-0.906127 0.180240 0.382683
-0.375330 0.074658 -0.923880
-0.961939 0.191342 0.195090
-0.191342 0.038060 -0.980785
-0.980785 0.195090 0.000000
-0.191342 0.038060 0.980785
-0.961939 0.191342 -0.195090
-0.375330 0.074658 0.923880
-0.906127 0.180240 -0.382683
-0.544895 0.108386 0.831470
-0.815493 0.162211 -0.555570
-0.180240 0.074657 -0.980785
-0.906127 0.375330 -0.195090
-0.353553 0.146446 0.923880
-0.853553 0.353553 -0.382683
-0.513280 0.212607 0.831470
-0.768177 0.318189 -0.555570
-0.653281 0.270598 0.707107
-0.653281 0.270598 -0.707107
-0.768177 0.318189 0.555570
-0.513280 0.212607 -0.831470
-0.853553 0.353553 0.382683
-0.353553 0.146446 -0.923880
-0.906127 0.375330 0.195090
-0.923879 0.382683 0.000000
-0.180240 0.074658 0.980785
-0.461940 0.308658 -0.831470
-0.768178 0.513280 0.382683
-0.318189 0.212607 -0.923880
-0.815493 0.544895 0.195090
-0.162212 0.108386 -0.980785
-0.831469 0.555570 0.000000
-0.162212 0.108386 0.980785
-0.815493 0.544895 -0.195090
-0.318190 0.212607 0.923880
-0.768178 0.513280 -0.382683
-0.461940 0.308658 0.831470
-0.691341 0.461939 -0.555570
-0.587938 0.392847 0.707107
-0.587938 0.392847 -0.707107
-0.691341 0.461939 0.555570
-0.270598 0.270598 0.923880
-0.653281 0.653281 -0.382683
-0.392847 0.392847 0.831470
-0.587937 0.587937 -0.555570
-0.500000 0.500000 0.707107
-0.500000 0.500000 -0.707107
-0.587937 0.587937 0.555570
-0.392847 0.392847 -0.831470
-0.653281 0.653281 0.382683
-0.270598 0.270598 -0.923880
-0.693519 0.693519 0.195090
-0.137950 0.137949 -0.980785
-0.707106 0.707106 0.000000
-0.137950 0.137949 0.980785
-0.693519 0.693519 -0.195090
-0.513280 0.768177 0.382683
-0.212607 0.318189 -0.923880
-0.544895 0.815492 0.195090
-0.108386 0.162211 -0.980785
-0.555570 0.831469 0.000000
-0.108386 0.162211 0.980785
-0.544895 0.815492 -0.195090
-0.212607 0.318189 0.923880
-0.513280 0.768177 -0.382683
-0.308658 0.461939 0.831470
-0.461939 0.691341 -0.555570
-0.392847 0.587937 0.707107
-0.392847 0.587937 -0.707107
-0.461939 0.691341 0.555570
-0.308658 0.461939 -0.831470
-0.353553 0.853553 -0.382683
-0.146447 0.353553 0.923880
-0.212607 0.513280 0.831470
-0.318189 0.768177 -0.555570
-0.270598 0.653281 0.707107
-0.270598 0.653281 -0.707107
-0.318189 0.768177 0.555570
-0.212607 0.513279 -0.831470
-0.353553 0.853553 0.382683
-0.146446 0.353553 -0.923880
-0.375330 0.906127 0.195090
-0.074658 0.180240 -0.980785
-0.382683 0.923879 0.000000
-0.074658 0.180240 0.980785
-0.375330 0.906127 -0.195090
-0.074658 0.375330 -0.923880
-0.180240 0.906127 0.382683
-0.191341 0.961939 0.195090
-0.038060 0.191341 -0.980785
-0.195090 0.980785 0.000000
-0.038060 0.191342 0.980785
-0.191341 0.961939 -0.195090
-0.074658 0.375330 0.923880
-0.180240 0.906127 -0.382683
-0.108386 0.544895 0.831470
-0.162211 0.815492 -0.555570
-0.137950 0.693520 0.707107
-0.137950 0.693520 -0.707107
-0.162211 0.815492 0.555570
-0.108386 0.544895 -0.831470
3 0 1 2
3 3 4 5
3 2 6 7
3 3 8 9
3 7 10 11
3 9 12 13
3 11 14 15
3 13 16 17
3 15 18 19
3 17 20 21
3 19 22 23
3 21 24 25
3 26 27 28
3 29 23 22
3 25 30 0
3 26 4 31
3 30 32 33
3 28 34 4
3 1 33 35
3 4 36 5
3 1 37 6
3 5 38 8
3 10 37 39
3 8 40 12
3 10 41 14
3 12 42 16
3 14 43 18
3 16 44 20
3 18 45 22
3 20 32 24
3 28 27 46
3 29 22 45
3 39 47 41
3 40 48 42
3 41 49 43
3 44 48 50
3 43 51 45
3 44 52 32
3 46 27 53
3 29 45 51
3 32 54 33
3 46 55 34
3 33 56 35
3 34 57 36
3 37 56 58
3 36 59 38
3 39 58 60
3 38 61 40
3 53 62 55
3 54 63 56
3 55 64 57
3 58 63 65
3 57 66 59
3 58 67 60
3 59 68 61
3 60 69 47
3 61 70 48
3 47 71 49
3 48 72 50
3 49 73 51
3 52 72 74
3 53 27 75
3 29 51 73
3 52 76 54
3 68 77 70
3 71 78 79
3 70 80 72
3 71 81 73
3 74 80 82
3 75 27 83
3 29 73 81
3 74 84 76
3 75 85 62
3 76 86 63
3 62 87 64
3 65 86 88
3 64 89 66
3 65 90 67
3 68 89 91
3 69 90 78
3 84 92 86
3 85 93 87
3 88 92 94
3 87 95 89
3 90 94 96
3 91 95 97
3 90 98 78
3 91 99 77
3 79 98 100
3 80 99 101
3 79 102 81
3 80 103 82
3 83 27 104
3 29 81 102
3 82 105 84
3 83 106 85
3 98 107 100
3 101 108 109
3 102 107 110
3 101 111 103
3 104 27 112
3 29 102 110
3 103 113 105
3 104 114 106
3 105 115 92
3 106 116 93
3 94 115 117
3 95 116 118
3 96 117 119
3 95 120 97
3 96 121 98
3 97 108 99
3 117 122 123
3 116 124 118
3 117 125 119
3 118 126 120
3 121 125 127
3 120 128 108
3 107 127 129
3 109 128 130
3 110 129 131
3 109 132 111
3 112 27 133
3 29 110 131
3 113 132 134
3 112 135 114
3 113 122 115
3 114 136 116
3 131 137 138
3 130 139 132
3 133 27 140
3 29 131 138
3 132 141 134
3 135 140 142
3 134 143 122
3 135 144 136
3 123 143 145
3 136 146 124
3 123 147 125
3 126 146 148
3 127 147 149
3 126 150 128
3 127 137 129
3 130 150 151
3 144 152 146
3 145 153 147
3 146 154 148
3 147 155 149
3 148 156 150
3 137 155 157
3 151 156 158
3 137 159 138
3 151 160 139
3 140 27 161
3 29 138 159
3 139 162 141
3 140 163 142
3 141 164 143
3 144 163 165
3 145 164 166
3 158 167 160
3 161 27 168
3 29 159 169
3 162 167 170
3 161 171 163
3 162 172 164
3 163 173 165
3 166 172 174
3 165 175 152
3 166 176 153
3 154 175 177
3 155 176 178
3 154 179 156
3 155 180 157
3 158 179 181
3 157 169 159
3 174 182 176
3 175 183 177
3 178 182 184
3 177 185 179
3 178 186 180
3 181 185 187
3 169 186 188
3 181 189 167
3 168 27 190
3 29 169 188
3 167 191 170
3 168 192 171
3 170 193 172
3 171 194 173
3 172 195 174
3 173 196 175
3 190 27 197
3 29 188 198
3 191 199 200
3 190 201 192
3 191 202 193
3 192 203 194
3 195 202 204
3 196 203 205
3 195 206 182
3 183 205 207
3 184 206 208
3 183 209 185
3 184 210 186
3 187 209 211
3 188 210 198
3 187 199 189
3 205 212 207
3 208 213 214
3 207 215 209
3 208 216 210
3 211 215 217
3 210 218 198
3 211 219 199
3 197 27 220
3 29 198 218
3 199 221 200
3 197 222 201
3 200 223 202
3 203 222 224
3 204 223 225
3 203 226 205
3 204 213 206
3 219 227 221
3 220 228 222
3 221 229 223
3 222 230 224
3 225 229 231
3 224 232 226
3 225 233 213
3 226 234 212
3 213 235 214
3 212 236 215
3 214 237 216
3 217 236 238
3 218 237 239
3 217 240 219
3 220 27 241
3 29 218 239
3 235 242 243
3 234 244 236
3 235 245 237
3 238 244 246
3 239 245 247
3 238 248 240
3 241 27 249
3 29 239 247
3 240 250 227
3 241 251 228
3 227 252 229
3 230 251 253
3 231 252 254
3 232 253 255
3 231 242 233
3 232 256 234
3 250 257 252
3 251 258 253
3 254 257 259
3 255 258 260
3 254 261 242
3 256 260 262
3 242 263 243
3 256 264 244
3 243 265 245
3 246 264 266
3 245 267 247
3 246 268 248
3 249 27 269
3 29 247 267
3 248 270 250
3 249 271 251
3 265 272 273
3 266 274 275
3 267 273 276
3 266 277 268
3 269 27 278
3 29 267 276
3 270 277 279
3 269 280 271
3 270 281 257
3 271 282 258
3 259 281 283
3 260 282 284
3 259 285 261
3 262 284 286
3 261 272 263
3 262 274 264
3 280 287 282
3 283 288 289
3 282 290 284
3 283 291 285
3 286 290 292
3 272 291 293
3 286 294 274
3 272 295 273
3 275 294 296
3 276 295 297
3 275 298 277
3 278 27 299
3 29 276 297
3 277 300 279
3 278 301 280
3 279 288 281
3 296 302 303
3 295 304 297
3 298 303 305
3 299 27 306
3 29 297 304
3 298 307 300
3 299 308 301
3 300 309 288
3 301 310 287
3 289 309 311
3 290 310 312
3 289 313 291
3 292 312 314
3 291 315 293
3 292 302 294
3 293 316 295
3 311 317 318
3 312 319 320
3 311 321 313
3 314 320 322
3 313 323 315
3 314 324 302
3 316 323 325
3 303 324 326
3 316 327 304
3 303 328 305
3 306 27 329
3 29 304 327
3 305 330 307
3 306 331 308
3 307 317 309
3 308 319 310
3 327 332 333
3 326 334 328
3 329 27 335
3 29 327 333
3 328 336 330
3 329 337 331
3 330 338 317
3 331 339 319
3 318 338 340
3 320 339 341
3 321 340 342
3 322 341 343
3 321 344 323
3 322 345 324
3 325 344 332
3 326 345 346
3 341 347 348
3 340 349 342
3 343 348 350
3 342 351 344
3 343 352 345
3 332 351 353
3 346 352 354
3 332 355 333
3 346 356 334
3 335 27 357
3 29 333 355
3 334 358 336
3 337 357 359
3 336 360 338
3 337 347 339
3 340 360 361
3 354 362 356
3 357 27 363
3 29 355 364
3 358 362 365
3 359 363 366
3 358 367 360
3 359 368 347
3 361 367 369
3 348 368 370
3 361 371 349
3 348 372 350
3 351 371 373
3 350 374 352
3 353 373 375
3 354 374 376
3 353 364 355
3 369 377 371
3 372 378 379
3 371 380 373
3 372 381 374
3 375 380 382
3 376 381 383
3 375 384 364
3 376 385 362
3 363 27 386
3 29 364 384
3 365 385 387
3 366 386 388
3 365 389 367
3 366 390 368
3 369 389 391
3 370 390 378
3 29 384 392
3 385 393 387
3 386 394 388
3 387 395 389
3 388 396 390
3 391 395 397
3 378 396 398
3 391 399 377
3 378 400 379
3 377 401 380
3 379 402 381
3 382 401 403
3 383 402 404
3 382 392 384
3 383 405 385
3 386 27 406
3 399 407 401
3 400 408 402
3 403 407 409
3 404 408 410
3 403 411 392
3 404 412 405
3 406 27 413
3 29 392 411
3 393 412 414
3 406 415 394
3 393 416 395
3 396 415 417
3 397 416 418
3 398 417 419
3 397 420 399
3 400 419 421
3 413 422 415
3 414 423 416
3 415 424 417
3 418 423 425
3 417 426 419
3 418 427 420
3 421 426 428
3 420 429 407
3 421 430 408
3 407 431 409
3 410 430 432
3 409 433 411
3 410 434 412
3 413 27 435
3 29 411 433
3 414 434 436
3 428 437 430
3 429 438 431
3 432 437 439
3 431 440 433
3 434 439 441
3 435 27 442
3 29 433 440
3 434 443 436
3 435 444 422
3 436 445 423
3 422 446 424
3 425 445 447
3 424 448 426
3 425 449 427
3 428 448 450
3 429 449 451
3 443 452 445
3 446 453 454
3 447 452 455
3 448 454 456
3 447 457 449
3 450 456 458
3 449 459 451
3 450 460 437
3 451 461 438
3 439 460 462
3 438 463 440
3 439 464 441
3 442 27 465
3 29 440 463
3 441 466 443
3 444 465 453
3 459 467 461
3 462 468 469
3 463 467 470
3 462 471 464
3 465 27 472
3 29 463 470
3 464 473 466
3 465 474 453
3 466 475 452
3 453 476 454
3 455 475 477
3 454 478 456
3 455 479 457
3 458 478 480
3 457 481 459
3 458 468 460
3 476 31 3
3 477 2 7
3 478 3 9
3 477 11 479
3 480 9 13
3 479 15 481
3 468 13 17
3 481 19 467
3 469 17 21
3 467 23 470
3 471 21 25
3 472 27 26
3 29 470 23
3 471 0 473
3 474 26 31
3 473 2 475
3 0 30 1
3 3 31 4
3 2 1 6
3 3 5 8
3 7 6 10
3 9 8 12
3 11 10 14
3 13 12 16
3 15 14 18
3 17 16 20
3 19 18 22
3 21 20 24
3 25 24 30
3 26 28 4
3 30 24 32
3 28 46 34
3 1 30 33
3 4 34 36
3 1 35 37
3 5 36 38
3 10 6 37
3 8 38 40
3 10 39 41
3 12 40 42
3 14 41 43
3 16 42 44
3 18 43 45
3 20 44 32
3 39 60 47
3 40 61 48
3 41 47 49
3 44 42 48
3 43 49 51
3 44 50 52
3 32 52 54
3 46 53 55
3 33 54 56
3 34 55 57
3 37 35 56
3 36 57 59
3 39 37 58
3 38 59 61
3 53 75 62
3 54 76 63
3 55 62 64
3 58 56 63
3 57 64 66
3 58 65 67
3 59 66 68
3 60 67 69
3 61 68 70
3 47 69 71
3 48 70 72
3 49 71 73
3 52 50 72
3 52 74 76
3 68 91 77
3 71 69 78
3 70 77 80
3 71 79 81
3 74 72 80
3 74 82 84
3 75 83 85
3 76 84 86
3 62 85 87
3 65 63 86
3 64 87 89
3 65 88 90
3 68 66 89
3 69 67 90
3 84 105 92
3 85 106 93
3 88 86 92
3 87 93 95
3 90 88 94
3 91 89 95
3 90 96 98
3 91 97 99
3 79 78 98
3 80 77 99
3 79 100 102
3 80 101 103
3 82 103 105
3 83 104 106
3 98 121 107
3 101 99 108
3 102 100 107
3 101 109 111
3 103 111 113
3 104 112 114
3 105 113 115
3 106 114 116
3 94 92 115
3 95 93 116
3 96 94 117
3 95 118 120
3 96 119 121
3 97 120 108
3 117 115 122
3 116 136 124
3 117 123 125
3 118 124 126
3 121 119 125
3 120 126 128
3 107 121 127
3 109 108 128
3 110 107 129
3 109 130 132
3 113 111 132
3 112 133 135
3 113 134 122
3 114 135 136
3 131 129 137
3 130 151 139
3 132 139 141
3 135 133 140
3 134 141 143
3 135 142 144
3 123 122 143
3 136 144 146
3 123 145 147
3 126 124 146
3 127 125 147
3 126 148 150
3 127 149 137
3 130 128 150
3 144 165 152
3 145 166 153
3 146 152 154
3 147 153 155
3 148 154 156
3 137 149 155
3 151 150 156
3 137 157 159
3 151 158 160
3 139 160 162
3 140 161 163
3 141 162 164
3 144 142 163
3 145 143 164
3 158 181 167
3 162 160 167
3 161 168 171
3 162 170 172
3 163 171 173
3 166 164 172
3 165 173 175
3 166 174 176
3 154 152 175
3 155 153 176
3 154 177 179
3 155 178 180
3 158 156 179
3 157 180 169
3 174 195 182
3 175 196 183
3 178 176 182
3 177 183 185
3 178 184 186
3 181 179 185
3 169 180 186
3 181 187 189
3 167 189 191
3 168 190 192
3 170 191 193
3 171 192 194
3 172 193 195
3 173 194 196
3 191 189 199
3 190 197 201
3 191 200 202
3 192 201 203
3 195 193 202
3 196 194 203
3 195 204 206
3 183 196 205
3 184 182 206
3 183 207 209
3 184 208 210
3 187 185 209
3 188 186 210
3 187 211 199
3 205 226 212
3 208 206 213
3 207 212 215
3 208 214 216
3 211 209 215
3 210 216 218
3 211 217 219
3 199 219 221
3 197 220 222
3 200 221 223
3 203 201 222
3 204 202 223
3 203 224 226
3 204 225 213
3 219 240 227
3 220 241 228
3 221 227 229
3 222 228 230
3 225 223 229
3 224 230 232
3 225 231 233
3 226 232 234
3 213 233 235
3 212 234 236
3 214 235 237
3 217 215 236
3 218 216 237
3 217 238 240
3 235 233 242
3 234 256 244
3 235 243 245
3 238 236 244
3 239 237 245
3 238 246 248
3 240 248 250
3 241 249 251
3 227 250 252
3 230 228 251
3 231 229 252
3 232 230 253
3 231 254 242
3 232 255 256
3 250 270 257
3 251 271 258
3 254 252 257
3 255 253 258
3 254 259 261
3 256 255 260
3 242 261 263
3 256 262 264
3 243 263 265
3 246 244 264
3 245 265 267
3 246 266 268
3 248 268 270
3 249 269 271
3 265 263 272
3 266 264 274
3 267 265 273
3 266 275 277
3 270 268 277
3 269 278 280
3 270 279 281
3 271 280 282
3 259 257 281
3 260 258 282
3 259 283 285
3 262 260 284
3 261 285 272
3 262 286 274
3 280 301 287
3 283 281 288
3 282 287 290
3 283 289 291
3 286 284 290
3 272 285 291
3 286 292 294
3 272 293 295
3 275 274 294
3 276 273 295
3 275 296 298
3 277 298 300
3 278 299 301
3 279 300 288
3 296 294 302
3 295 316 304
3 298 296 303
3 298 305 307
3 299 306 308
3 300 307 309
3 301 308 310
3 289 288 309
3 290 287 310
3 289 311 313
3 292 290 312
3 291 313 315
3 292 314 302
3 293 315 316
3 311 309 317
3 312 310 319
3 311 318 321
3 314 312 320
3 313 321 323
3 314 322 324
3 316 315 323
3 303 302 324
3 316 325 327
3 303 326 328
3 305 328 330
3 306 329 331
3 307 330 317
3 308 331 319
3 327 325 332
3 326 346 334
3 328 334 336
3 329 335 337
3 330 336 338
3 331 337 339
3 318 317 338
3 320 319 339
3 321 318 340
3 322 320 341
3 321 342 344
3 322 343 345
3 325 323 344
3 326 324 345
3 341 339 347
3 340 361 349
3 343 341 348
3 342 349 351
3 343 350 352
3 332 344 351
3 346 345 352
3 332 353 355
3 346 354 356
3 334 356 358
3 337 335 357
3 336 358 360
3 337 359 347
3 340 338 360
3 354 376 362
3 358 356 362
3 359 357 363
3 358 365 367
3 359 366 368
3 361 360 367
3 348 347 368
3 361 369 371
3 348 370 372
3 351 349 371
3 350 372 374
3 353 351 373
3 354 352 374
3 353 375 364
3 369 391 377
3 372 370 378
3 371 377 380
3 372 379 381
3 375 373 380
3 376 374 381
3 375 382 384
3 376 383 385
3 365 362 385
3 366 363 386
3 365 387 389
3 366 388 390
3 369 367 389
3 370 368 390
3 385 405 393
3 386 406 394
3 387 393 395
3 388 394 396
3 391 389 395
3 378 390 396
3 391 397 399
3 378 398 400
3 377 399 401
3 379 400 402
3 382 380 401
3 383 381 402
3 382 403 392
3 383 404 405
3 399 420 407
3 400 421 408
3 403 401 407
3 404 402 408
3 403 409 411
3 404 410 412
3 393 405 412
3 406 413 415
3 393 414 416
3 396 394 415
3 397 395 416
3 398 396 417
3 397 418 420
3 400 398 419
3 413 435 422
3 414 436 423
3 415 422 424
3 418 416 423
3 417 424 426
3 418 425 427
3 421 419 426
3 420 427 429
3 421 428 430
3 407 429 431
3 410 408 430
3 409 431 433
3 410 432 434
3 414 412 434
3 428 450 437
3 429 451 438
3 432 430 437
3 431 438 440
3 434 432 439
3 434 441 443
3 435 442 444
3 436 443 445
3 422 444 446
3 425 423 445
3 424 446 448
3 425 447 449
3 428 426 448
3 429 427 449
3 443 466 452
3 446 444 453
3 447 445 452
3 448 446 454
3 447 455 457
3 450 448 456
3 449 457 459
3 450 458 460
3 451 459 461
3 439 437 460
3 438 461 463
3 439 462 464
3 441 464 466
3 444 442 465
3 459 481 467
3 462 460 468
3 463 461 467
3 462 469 471
3 464 471 473
3 465 472 474
3 466 473 475
3 453 474 476
3 455 452 475
3 454 476 478
3 455 477 479
3 458 456 478
3 457 479 481
3 458 480 468
3 476 474 31
3 477 475 2
3 478 476 3
3 477 7 11
3 480 478 9
3 479 11 15
3 468 480 13
3 481 15 19
3 469 468 17
3 467 19 23
3 471 469 21
3 471 25 0
3 474 472 26
3 473 0 2
